<svg width="23" height="22" viewBox="0 0 23 22" fill="none" xmlns="http://www.w3.org/2000/svg">
<path d="M17.5936 0.320312H5.07022C2.4329 0.320312 0.294922 2.45829 0.294922 5.09561V16.6793C0.294922 19.3166 2.4329 21.4546 5.07022 21.4546H17.5936C20.2309 21.4546 22.3689 19.3166 22.3689 16.6793V5.09561C22.3689 2.45829 20.2309 0.320312 17.5936 0.320312Z" fill="#006A4E"/>
<path d="M17.5941 21.7487H5.0708C2.27536 21.7487 0 19.4733 0 16.6779V5.09424C0 2.2988 2.27536 0.0234375 5.0708 0.0234375H17.5941C20.3896 0.0234375 22.6649 2.2988 22.6649 5.09424V16.672C22.6649 19.4674 20.3896 21.7428 17.5941 21.7428V21.7487ZM5.0708 0.61444C2.60041 0.61444 0.591002 2.62385 0.591002 5.09424V16.672C0.591002 19.1424 2.60041 21.1518 5.0708 21.1518H17.5941C20.0645 21.1518 22.0739 19.1424 22.0739 16.672V5.09424C22.0739 2.62385 20.0645 0.61444 17.5941 0.61444H5.0708Z" fill="black"/>
<path d="M11.335 15.1154C13.6688 15.1154 15.5607 13.2235 15.5607 10.8897C15.5607 8.55596 13.6688 6.66406 11.335 6.66406C9.00127 6.66406 7.10938 8.55596 7.10938 10.8897C7.10938 13.2235 9.00127 15.1154 11.335 15.1154Z" fill="#FF4B55"/>
</svg>
