<svg width="23" height="22" viewBox="0 0 23 22" fill="none" xmlns="http://www.w3.org/2000/svg">
<g clip-path="url(#clip0_67038_67532)">
<g clip-path="url(#clip1_67038_67532)">
<path d="M22.66 0H0V21.77H22.66V0Z" fill="black"/>
<path d="M22.66 7.25781H0V21.7711H22.66V7.25781Z" fill="#DD0000"/>
<path d="M22.66 14.5117H0V21.7684H22.66V14.5117Z" fill="#FFCE00"/>
</g>
<path d="M17.5941 21.7252H5.0708C2.27536 21.7252 0 19.4499 0 16.6544V5.0708C0 2.27536 2.27536 0 5.0708 0H17.5941C20.3896 0 22.6649 2.27536 22.6649 5.0708V16.6485C22.6649 19.444 20.3896 21.7193 17.5941 21.7193V21.7252ZM5.0708 0.591002C2.60041 0.591002 0.591002 2.60041 0.591002 5.0708V16.6485C0.591002 19.1189 2.60041 21.1283 5.0708 21.1283H17.5941C20.0645 21.1283 22.0739 19.1189 22.0739 16.6485V5.0708C22.0739 2.60041 20.0645 0.591002 17.5941 0.591002H5.0708Z" fill="black"/>
</g>
<defs>
<clipPath id="clip0_67038_67532">
<rect width="23" height="22" fill="white"/>
</clipPath>
<clipPath id="clip1_67038_67532">
<rect width="22.66" height="21.77" rx="6" fill="white"/>
</clipPath>
</defs>
</svg>
