<svg width="23" height="22" viewBox="0 0 23 22" fill="none" xmlns="http://www.w3.org/2000/svg">
<path d="M11.3348 11.1374H0.294922V4.94964C0.294922 4.94964 0.560873 1.13767 4.50877 0.570312H11.3289V11.1374H11.3348Z" fill="#41479A"/>
<path d="M11.3348 0.296875L18.3205 0.355975C18.3205 0.355975 22.0379 0.698756 22.3689 5.07217V16.6499C22.3689 16.6499 22.4634 20.982 17.5936 21.4252H5.07022C5.07022 21.4252 0.820914 21.3957 0.294922 16.9454V10.8581H11.3348V0.296875Z" fill="white"/>
<path d="M21.7376 3.00774H11.3359V1.64844H21.3298L21.7376 3.00774Z" fill="#FF4B55"/>
<path d="M22.3759 4.49219H11.3359V5.85149H22.3759V4.49219Z" fill="#FF4B55"/>
<path d="M22.3759 7.32812H11.3359V8.68743H22.3759V7.32812Z" fill="#FF4B55"/>
<path d="M22.3689 10.1797H0.294922V11.539H22.3689V10.1797Z" fill="#FF4B55"/>
<path d="M22.3689 13.0234H0.294922V14.3827H22.3689V13.0234Z" fill="#FF4B55"/>
<path d="M22.3689 15.8672H0.294922V17.2265H22.3689V15.8672Z" fill="#FF4B55"/>
<path d="M20.7504 20.0764H1.8206L0.875 18.6875H21.7551L20.7504 20.0764Z" fill="#FF4B55"/>
<path d="M17.5941 21.7252H5.0708C2.27536 21.7252 0 19.4499 0 16.6544V5.0708C0 2.27536 2.27536 0 5.0708 0H17.5941C20.3896 0 22.6649 2.27536 22.6649 5.0708V16.6485C22.6649 19.444 20.3896 21.7193 17.5941 21.7193V21.7252ZM5.0708 0.591002C2.60041 0.591002 0.591002 2.60041 0.591002 5.0708V16.6485C0.591002 19.1189 2.60041 21.1283 5.0708 21.1283H17.5941C20.0645 21.1283 22.0739 19.1189 22.0739 16.6485V5.0708C22.0739 2.60041 20.0645 0.591002 17.5941 0.591002H5.0708Z" fill="black"/>
<path d="M2.77734 7.75118C2.77734 7.75118 2.77734 7.72163 2.77734 7.7039C2.77734 7.7039 2.77734 7.7039 2.77734 7.69799C2.79507 7.65071 2.82462 7.62116 2.87781 7.61525C2.92509 7.61525 2.96646 7.60934 3.01374 7.60343C3.09649 7.59752 3.17923 7.5857 3.26197 7.57979C3.32698 7.57388 3.3979 7.56797 3.46291 7.56206C3.47473 7.56206 3.48655 7.55615 3.49246 7.53842C3.54565 7.41431 3.59884 7.2902 3.65203 7.16018C3.67567 7.10699 3.69931 7.04789 3.72295 6.9947C3.74068 6.95333 3.77614 6.9356 3.81751 6.92969C3.85888 6.92969 3.89434 6.94742 3.91798 6.98288C3.92389 6.9947 3.9298 7.00652 3.93571 7.01834C4.00663 7.18973 4.08346 7.36112 4.15438 7.53251C4.16029 7.55024 4.17211 7.56206 4.19575 7.56206C4.19575 7.56206 4.19575 7.56206 4.20166 7.56206C4.25485 7.56206 4.30804 7.57388 4.36123 7.57388C4.43215 7.57979 4.49716 7.5857 4.56808 7.59161C4.63309 7.59752 4.6981 7.60343 4.76311 7.60934C4.78084 7.60934 4.79857 7.60934 4.81039 7.62116C4.88131 7.65662 4.89904 7.75118 4.83403 7.81028C4.6981 7.92848 4.56808 8.04668 4.43215 8.16488C4.41442 8.1767 4.39669 8.19443 4.38487 8.20625C4.38487 8.20625 4.38487 8.20625 4.38487 8.21216C4.41442 8.33627 4.44397 8.46629 4.46761 8.5904C4.48534 8.66132 4.50307 8.73224 4.51489 8.80316C4.52671 8.86227 4.49125 8.91546 4.43215 8.93319C4.43215 8.93319 4.42624 8.93319 4.42033 8.93319H4.39078C4.39078 8.93319 4.33759 8.90955 4.31395 8.89773C4.16029 8.80316 4.00072 8.7086 3.84706 8.61404C3.83524 8.60813 3.82342 8.60813 3.8116 8.61404C3.65794 8.7086 3.50428 8.79726 3.35062 8.89182C3.32107 8.90955 3.29743 8.92728 3.26788 8.93319H3.23833C3.16741 8.91546 3.13786 8.86227 3.14968 8.79135C3.18514 8.63177 3.2206 8.47811 3.25606 8.31854C3.26197 8.28308 3.27379 8.24171 3.2797 8.20625C3.27379 8.20625 3.26788 8.19443 3.26197 8.19443C3.12013 8.07032 2.97828 7.94621 2.84235 7.82801C2.81871 7.80437 2.79507 7.78073 2.78916 7.75118H2.77734Z" fill="white"/>
<path d="M5.29883 7.75118C5.29883 7.75118 5.29883 7.72163 5.29883 7.7039C5.29883 7.7039 5.29883 7.7039 5.29883 7.69799C5.31656 7.65071 5.34611 7.62116 5.3993 7.61525C5.44658 7.61525 5.48795 7.60934 5.53523 7.60343C5.61797 7.59752 5.70071 7.5857 5.78345 7.57979C5.84846 7.57388 5.91938 7.56797 5.98439 7.56206C5.99621 7.56206 6.00803 7.55615 6.01394 7.53842C6.06713 7.41431 6.12032 7.2902 6.17351 7.16018C6.19715 7.10699 6.22079 7.04789 6.24443 6.9947C6.26216 6.95333 6.29762 6.9356 6.33899 6.92969C6.38036 6.92969 6.41582 6.94742 6.43946 6.98288C6.44537 6.9947 6.45128 7.00652 6.45719 7.01834C6.52811 7.18973 6.60494 7.36112 6.67586 7.53251C6.68177 7.55024 6.69359 7.56206 6.71723 7.56206C6.71723 7.56206 6.71723 7.56206 6.72314 7.56206C6.77633 7.56206 6.82952 7.57388 6.88271 7.57388C6.95363 7.57979 7.01864 7.5857 7.08957 7.59161C7.15458 7.59752 7.21959 7.60343 7.2846 7.60934C7.30233 7.60934 7.32006 7.60934 7.33188 7.62116C7.4028 7.65662 7.42053 7.75118 7.35552 7.81028C7.21959 7.92848 7.08957 8.04668 6.95363 8.16488C6.9359 8.1767 6.91817 8.19443 6.90635 8.20625C6.90635 8.20625 6.90635 8.20625 6.90635 8.21216C6.9359 8.33627 6.96545 8.46629 6.98909 8.5904C7.00682 8.66132 7.02455 8.73224 7.03637 8.80316C7.04819 8.86227 7.01274 8.91546 6.95363 8.93319C6.95363 8.93319 6.94772 8.93319 6.94181 8.93319H6.91226C6.91226 8.93319 6.85907 8.90955 6.83543 8.89773C6.68177 8.80316 6.5222 8.7086 6.36854 8.61404C6.35672 8.60813 6.3449 8.60813 6.33308 8.61404C6.17942 8.7086 6.02576 8.79726 5.8721 8.89182C5.84255 8.90955 5.81891 8.92728 5.78936 8.93319H5.75981C5.68889 8.91546 5.65934 8.86227 5.67116 8.79135C5.70662 8.63177 5.74208 8.47811 5.77754 8.31854C5.78345 8.28308 5.79527 8.24171 5.80118 8.20625C5.79527 8.20625 5.78936 8.19443 5.78345 8.19443C5.64161 8.07032 5.49977 7.94621 5.36384 7.82801C5.3402 7.80437 5.31656 7.78073 5.31065 7.75118H5.29883Z" fill="white"/>
<path d="M7.83203 7.75118C7.83203 7.75118 7.83203 7.72163 7.83203 7.7039C7.83203 7.7039 7.83203 7.7039 7.83203 7.69799C7.84976 7.65071 7.87931 7.62116 7.9325 7.61525C7.97978 7.61525 8.02115 7.60934 8.06843 7.60343C8.15117 7.59752 8.23391 7.5857 8.31665 7.57979C8.38166 7.57388 8.45258 7.56797 8.51759 7.56206C8.52941 7.56206 8.54123 7.55615 8.54714 7.53842C8.60033 7.41431 8.65352 7.2902 8.70671 7.16018C8.73035 7.10699 8.754 7.04789 8.77764 6.9947C8.79537 6.95333 8.83083 6.9356 8.8722 6.92969C8.91357 6.92969 8.94903 6.94742 8.97267 6.98288C8.97858 6.9947 8.98449 7.00652 8.9904 7.01834C9.06132 7.18973 9.13815 7.36112 9.20907 7.53251C9.21498 7.55024 9.2268 7.56206 9.25044 7.56206C9.25044 7.56206 9.25044 7.56206 9.25635 7.56206C9.30954 7.56206 9.36273 7.57388 9.41592 7.57388C9.48684 7.57979 9.55185 7.5857 9.62277 7.59161C9.68778 7.59752 9.75279 7.60343 9.8178 7.60934C9.83553 7.60934 9.85326 7.60934 9.86508 7.62116C9.936 7.65662 9.95373 7.75118 9.88872 7.81028C9.75279 7.92848 9.62277 8.04668 9.48684 8.16488C9.46911 8.1767 9.45138 8.19443 9.43956 8.20625C9.43956 8.20625 9.43956 8.20625 9.43956 8.21216C9.46911 8.33627 9.49866 8.46629 9.5223 8.5904C9.54003 8.66132 9.55776 8.73224 9.56958 8.80316C9.5814 8.86227 9.54594 8.91546 9.48684 8.93319C9.48684 8.93319 9.48093 8.93319 9.47502 8.93319H9.44547C9.44547 8.93319 9.39228 8.90955 9.36864 8.89773C9.21498 8.80316 9.05541 8.7086 8.90175 8.61404C8.88993 8.60813 8.87811 8.60813 8.86629 8.61404C8.71262 8.7086 8.55896 8.79726 8.4053 8.89182C8.37575 8.90955 8.35211 8.92728 8.32256 8.93319H8.29301C8.22209 8.91546 8.19254 8.86227 8.20436 8.79135C8.23982 8.63177 8.27528 8.47811 8.31074 8.31854C8.31665 8.28308 8.32847 8.24171 8.33438 8.20625C8.32847 8.20625 8.32256 8.19443 8.31665 8.19443C8.17481 8.07032 8.03297 7.94621 7.89704 7.82801C7.8734 7.80437 7.84976 7.78073 7.84385 7.75118H7.83203Z" fill="white"/>
<path d="M2.77734 5.18868C2.77734 5.18868 2.77734 5.15913 2.77734 5.1414C2.77734 5.1414 2.77734 5.1414 2.77734 5.13549C2.79507 5.08821 2.82462 5.05866 2.87781 5.05275C2.92509 5.05275 2.96646 5.04684 3.01374 5.04093C3.09649 5.03502 3.17923 5.0232 3.26197 5.01729C3.32698 5.01138 3.3979 5.00547 3.46291 4.99956C3.47473 4.99956 3.48655 4.99365 3.49246 4.97592C3.54565 4.85181 3.59884 4.7277 3.65203 4.59768C3.67567 4.54449 3.69931 4.48539 3.72295 4.4322C3.74068 4.39083 3.77614 4.3731 3.81751 4.36719C3.85888 4.36719 3.89434 4.38492 3.91798 4.42038C3.92389 4.4322 3.9298 4.44402 3.93571 4.45584C4.00663 4.62723 4.08346 4.79862 4.15438 4.97001C4.16029 4.98774 4.17211 4.99956 4.19575 4.99956C4.19575 4.99956 4.19575 4.99956 4.20166 4.99956C4.25485 4.99956 4.30804 5.01138 4.36123 5.01138C4.43215 5.01729 4.49716 5.0232 4.56808 5.02911C4.63309 5.03502 4.6981 5.04093 4.76311 5.04684C4.78084 5.04684 4.79857 5.04684 4.81039 5.05866C4.88131 5.09412 4.89904 5.18868 4.83403 5.24778C4.6981 5.36598 4.56808 5.48418 4.43215 5.60238C4.41442 5.6142 4.39669 5.63193 4.38487 5.64375C4.38487 5.64375 4.38487 5.64375 4.38487 5.64966C4.41442 5.77377 4.44397 5.90379 4.46761 6.0279C4.48534 6.09882 4.50307 6.16974 4.51489 6.24066C4.52671 6.29977 4.49125 6.35296 4.43215 6.37069C4.43215 6.37069 4.42624 6.37069 4.42033 6.37069H4.39078C4.39078 6.37069 4.33759 6.34705 4.31395 6.33523C4.16029 6.24066 4.00072 6.1461 3.84706 6.05154C3.83524 6.04563 3.82342 6.04563 3.8116 6.05154C3.65794 6.1461 3.50428 6.23476 3.35062 6.32932C3.32107 6.34705 3.29743 6.36478 3.26788 6.37069H3.23833C3.16741 6.35296 3.13786 6.29977 3.14968 6.22885C3.18514 6.06927 3.2206 5.91561 3.25606 5.75604C3.26197 5.72058 3.27379 5.67921 3.2797 5.64375C3.27379 5.64375 3.26788 5.63193 3.26197 5.63193C3.12013 5.50782 2.97828 5.38371 2.84235 5.26551C2.81871 5.24187 2.79507 5.21823 2.78916 5.18868H2.77734Z" fill="white"/>
<path d="M5.29883 5.18868C5.29883 5.18868 5.29883 5.15913 5.29883 5.1414C5.29883 5.1414 5.29883 5.1414 5.29883 5.13549C5.31656 5.08821 5.34611 5.05866 5.3993 5.05275C5.44658 5.05275 5.48795 5.04684 5.53523 5.04093C5.61797 5.03502 5.70071 5.0232 5.78345 5.01729C5.84846 5.01138 5.91938 5.00547 5.98439 4.99956C5.99621 4.99956 6.00803 4.99365 6.01394 4.97592C6.06713 4.85181 6.12032 4.7277 6.17351 4.59768C6.19715 4.54449 6.22079 4.48539 6.24443 4.4322C6.26216 4.39083 6.29762 4.3731 6.33899 4.36719C6.38036 4.36719 6.41582 4.38492 6.43946 4.42038C6.44537 4.4322 6.45128 4.44402 6.45719 4.45584C6.52811 4.62723 6.60494 4.79862 6.67586 4.97001C6.68177 4.98774 6.69359 4.99956 6.71723 4.99956C6.71723 4.99956 6.71723 4.99956 6.72314 4.99956C6.77633 4.99956 6.82952 5.01138 6.88271 5.01138C6.95363 5.01729 7.01864 5.0232 7.08957 5.02911C7.15458 5.03502 7.21959 5.04093 7.2846 5.04684C7.30233 5.04684 7.32006 5.04684 7.33188 5.05866C7.4028 5.09412 7.42053 5.18868 7.35552 5.24778C7.21959 5.36598 7.08957 5.48418 6.95363 5.60238C6.9359 5.6142 6.91817 5.63193 6.90635 5.64375C6.90635 5.64375 6.90635 5.64375 6.90635 5.64966C6.9359 5.77377 6.96545 5.90379 6.98909 6.0279C7.00682 6.09882 7.02455 6.16974 7.03637 6.24066C7.04819 6.29977 7.01274 6.35296 6.95363 6.37069C6.95363 6.37069 6.94772 6.37069 6.94181 6.37069H6.91226C6.91226 6.37069 6.85907 6.34705 6.83543 6.33523C6.68177 6.24066 6.5222 6.1461 6.36854 6.05154C6.35672 6.04563 6.3449 6.04563 6.33308 6.05154C6.17942 6.1461 6.02576 6.23476 5.8721 6.32932C5.84255 6.34705 5.81891 6.36478 5.78936 6.37069H5.75981C5.68889 6.35296 5.65934 6.29977 5.67116 6.22885C5.70662 6.06927 5.74208 5.91561 5.77754 5.75604C5.78345 5.72058 5.79527 5.67921 5.80118 5.64375C5.79527 5.64375 5.78936 5.63193 5.78345 5.63193C5.64161 5.50782 5.49977 5.38371 5.36384 5.26551C5.3402 5.24187 5.31656 5.21823 5.31065 5.18868H5.29883Z" fill="white"/>
<path d="M7.83203 5.18868C7.83203 5.18868 7.83203 5.15913 7.83203 5.1414C7.83203 5.1414 7.83203 5.1414 7.83203 5.13549C7.84976 5.08821 7.87931 5.05866 7.9325 5.05275C7.97978 5.05275 8.02115 5.04684 8.06843 5.04093C8.15117 5.03502 8.23391 5.0232 8.31665 5.01729C8.38166 5.01138 8.45258 5.00547 8.51759 4.99956C8.52941 4.99956 8.54123 4.99365 8.54714 4.97592C8.60033 4.85181 8.65352 4.7277 8.70671 4.59768C8.73035 4.54449 8.754 4.48539 8.77764 4.4322C8.79537 4.39083 8.83083 4.3731 8.8722 4.36719C8.91357 4.36719 8.94903 4.38492 8.97267 4.42038C8.97858 4.4322 8.98449 4.44402 8.9904 4.45584C9.06132 4.62723 9.13815 4.79862 9.20907 4.97001C9.21498 4.98774 9.2268 4.99956 9.25044 4.99956C9.25044 4.99956 9.25044 4.99956 9.25635 4.99956C9.30954 4.99956 9.36273 5.01138 9.41592 5.01138C9.48684 5.01729 9.55185 5.0232 9.62277 5.02911C9.68778 5.03502 9.75279 5.04093 9.8178 5.04684C9.83553 5.04684 9.85326 5.04684 9.86508 5.05866C9.936 5.09412 9.95373 5.18868 9.88872 5.24778C9.75279 5.36598 9.62277 5.48418 9.48684 5.60238C9.46911 5.6142 9.45138 5.63193 9.43956 5.64375C9.43956 5.64375 9.43956 5.64375 9.43956 5.64966C9.46911 5.77377 9.49866 5.90379 9.5223 6.0279C9.54003 6.09882 9.55776 6.16974 9.56958 6.24066C9.5814 6.29977 9.54594 6.35296 9.48684 6.37069C9.48684 6.37069 9.48093 6.37069 9.47502 6.37069H9.44547C9.44547 6.37069 9.39228 6.34705 9.36864 6.33523C9.21498 6.24066 9.05541 6.1461 8.90175 6.05154C8.88993 6.04563 8.87811 6.04563 8.86629 6.05154C8.71262 6.1461 8.55896 6.23476 8.4053 6.32932C8.37575 6.34705 8.35211 6.36478 8.32256 6.37069H8.29301C8.22209 6.35296 8.19254 6.29977 8.20436 6.22885C8.23982 6.06927 8.27528 5.91561 8.31074 5.75604C8.31665 5.72058 8.32847 5.67921 8.33438 5.64375C8.32847 5.64375 8.32256 5.63193 8.31665 5.63193C8.17481 5.50782 8.03297 5.38371 7.89704 5.26551C7.8734 5.24187 7.84976 5.21823 7.84385 5.18868H7.83203Z" fill="white"/>
<path d="M2.77734 2.62618C2.77734 2.62618 2.77734 2.59663 2.77734 2.5789C2.77734 2.5789 2.77734 2.5789 2.77734 2.57299C2.79507 2.52571 2.82462 2.49616 2.87781 2.49025C2.92509 2.49025 2.96646 2.48434 3.01374 2.47843C3.09649 2.47252 3.17923 2.4607 3.26197 2.45479C3.32698 2.44888 3.3979 2.44297 3.46291 2.43706C3.47473 2.43706 3.48655 2.43115 3.49246 2.41342C3.54565 2.28931 3.59884 2.1652 3.65203 2.03518C3.67567 1.98199 3.69931 1.92289 3.72295 1.8697C3.74068 1.82833 3.77614 1.8106 3.81751 1.80469C3.85888 1.80469 3.89434 1.82242 3.91798 1.85788C3.92389 1.8697 3.9298 1.88152 3.93571 1.89334C4.00663 2.06473 4.08346 2.23612 4.15438 2.40751C4.16029 2.42524 4.17211 2.43706 4.19575 2.43706C4.19575 2.43706 4.19575 2.43706 4.20166 2.43706C4.25485 2.43706 4.30804 2.44888 4.36123 2.44888C4.43215 2.45479 4.49716 2.4607 4.56808 2.46661C4.63309 2.47252 4.6981 2.47843 4.76311 2.48434C4.78084 2.48434 4.79857 2.48434 4.81039 2.49616C4.88131 2.53162 4.89904 2.62618 4.83403 2.68528C4.6981 2.80348 4.56808 2.92168 4.43215 3.03988C4.41442 3.0517 4.39669 3.06943 4.38487 3.08125C4.38487 3.08125 4.38487 3.08125 4.38487 3.08716C4.41442 3.21127 4.44397 3.34129 4.46761 3.4654C4.48534 3.53632 4.50307 3.60724 4.51489 3.67817C4.52671 3.73727 4.49125 3.79046 4.43215 3.80819C4.43215 3.80819 4.42624 3.80819 4.42033 3.80819H4.39078C4.39078 3.80819 4.33759 3.78455 4.31395 3.77273C4.16029 3.67817 4.00072 3.5836 3.84706 3.48904C3.83524 3.48313 3.82342 3.48313 3.8116 3.48904C3.65794 3.5836 3.50428 3.67226 3.35062 3.76682C3.32107 3.78455 3.29743 3.80228 3.26788 3.80819H3.23833C3.16741 3.79046 3.13786 3.73727 3.14968 3.66635C3.18514 3.50677 3.2206 3.35311 3.25606 3.19354C3.26197 3.15808 3.27379 3.11671 3.2797 3.08125C3.27379 3.08125 3.26788 3.06943 3.26197 3.06943C3.12013 2.94532 2.97828 2.82121 2.84235 2.70301C2.81871 2.67937 2.79507 2.65573 2.78916 2.62618H2.77734Z" fill="white"/>
<path d="M5.29883 2.62618C5.29883 2.62618 5.29883 2.59663 5.29883 2.5789C5.29883 2.5789 5.29883 2.5789 5.29883 2.57299C5.31656 2.52571 5.34611 2.49616 5.3993 2.49025C5.44658 2.49025 5.48795 2.48434 5.53523 2.47843C5.61797 2.47252 5.70071 2.4607 5.78345 2.45479C5.84846 2.44888 5.91938 2.44297 5.98439 2.43706C5.99621 2.43706 6.00803 2.43115 6.01394 2.41342C6.06713 2.28931 6.12032 2.1652 6.17351 2.03518C6.19715 1.98199 6.22079 1.92289 6.24443 1.8697C6.26216 1.82833 6.29762 1.8106 6.33899 1.80469C6.38036 1.80469 6.41582 1.82242 6.43946 1.85788C6.44537 1.8697 6.45128 1.88152 6.45719 1.89334C6.52811 2.06473 6.60494 2.23612 6.67586 2.40751C6.68177 2.42524 6.69359 2.43706 6.71723 2.43706C6.71723 2.43706 6.71723 2.43706 6.72314 2.43706C6.77633 2.43706 6.82952 2.44888 6.88271 2.44888C6.95363 2.45479 7.01864 2.4607 7.08957 2.46661C7.15458 2.47252 7.21959 2.47843 7.2846 2.48434C7.30233 2.48434 7.32006 2.48434 7.33188 2.49616C7.4028 2.53162 7.42053 2.62618 7.35552 2.68528C7.21959 2.80348 7.08957 2.92168 6.95363 3.03988C6.9359 3.0517 6.91817 3.06943 6.90635 3.08125C6.90635 3.08125 6.90635 3.08125 6.90635 3.08716C6.9359 3.21127 6.96545 3.34129 6.98909 3.4654C7.00682 3.53632 7.02455 3.60724 7.03637 3.67817C7.04819 3.73727 7.01274 3.79046 6.95363 3.80819C6.95363 3.80819 6.94772 3.80819 6.94181 3.80819H6.91226C6.91226 3.80819 6.85907 3.78455 6.83543 3.77273C6.68177 3.67817 6.5222 3.5836 6.36854 3.48904C6.35672 3.48313 6.3449 3.48313 6.33308 3.48904C6.17942 3.5836 6.02576 3.67226 5.8721 3.76682C5.84255 3.78455 5.81891 3.80228 5.78936 3.80819H5.75981C5.68889 3.79046 5.65934 3.73727 5.67116 3.66635C5.70662 3.50677 5.74208 3.35311 5.77754 3.19354C5.78345 3.15808 5.79527 3.11671 5.80118 3.08125C5.79527 3.08125 5.78936 3.06943 5.78345 3.06943C5.64161 2.94532 5.49977 2.82121 5.36384 2.70301C5.3402 2.67937 5.31656 2.65573 5.31065 2.62618H5.29883Z" fill="white"/>
<path d="M7.83203 2.62618C7.83203 2.62618 7.83203 2.59663 7.83203 2.5789C7.83203 2.5789 7.83203 2.5789 7.83203 2.57299C7.84976 2.52571 7.87931 2.49616 7.9325 2.49025C7.97978 2.49025 8.02115 2.48434 8.06843 2.47843C8.15117 2.47252 8.23391 2.4607 8.31665 2.45479C8.38166 2.44888 8.45258 2.44297 8.51759 2.43706C8.52941 2.43706 8.54123 2.43115 8.54714 2.41342C8.60033 2.28931 8.65352 2.1652 8.70671 2.03518C8.73035 1.98199 8.754 1.92289 8.77764 1.8697C8.79537 1.82833 8.83083 1.8106 8.8722 1.80469C8.91357 1.80469 8.94903 1.82242 8.97267 1.85788C8.97858 1.8697 8.98449 1.88152 8.9904 1.89334C9.06132 2.06473 9.13815 2.23612 9.20907 2.40751C9.21498 2.42524 9.2268 2.43706 9.25044 2.43706C9.25044 2.43706 9.25044 2.43706 9.25635 2.43706C9.30954 2.43706 9.36273 2.44888 9.41592 2.44888C9.48684 2.45479 9.55185 2.4607 9.62277 2.46661C9.68778 2.47252 9.75279 2.47843 9.8178 2.48434C9.83553 2.48434 9.85326 2.48434 9.86508 2.49616C9.936 2.53162 9.95373 2.62618 9.88872 2.68528C9.75279 2.80348 9.62277 2.92168 9.48684 3.03988C9.46911 3.0517 9.45138 3.06943 9.43956 3.08125C9.43956 3.08125 9.43956 3.08125 9.43956 3.08716C9.46911 3.21127 9.49866 3.34129 9.5223 3.4654C9.54003 3.53632 9.55776 3.60724 9.56958 3.67817C9.5814 3.73727 9.54594 3.79046 9.48684 3.80819C9.48684 3.80819 9.48093 3.80819 9.47502 3.80819H9.44547C9.44547 3.80819 9.39228 3.78455 9.36864 3.77273C9.21498 3.67817 9.05541 3.5836 8.90175 3.48904C8.88993 3.48313 8.87811 3.48313 8.86629 3.48904C8.71262 3.5836 8.55896 3.67226 8.4053 3.76682C8.37575 3.78455 8.35211 3.80228 8.32256 3.80819H8.29301C8.22209 3.79046 8.19254 3.73727 8.20436 3.66635C8.23982 3.50677 8.27528 3.35311 8.31074 3.19354C8.31665 3.15808 8.32847 3.11671 8.33438 3.08125C8.32847 3.08125 8.32256 3.06943 8.31665 3.06943C8.17481 2.94532 8.03297 2.82121 7.89704 2.70301C7.8734 2.67937 7.84976 2.65573 7.84385 2.62618H7.83203Z" fill="white"/>
</svg>
