<svg width="23" height="22" viewBox="0 0 23 22" fill="none" xmlns="http://www.w3.org/2000/svg">
<path d="M0.603516 4.27647H22.2874C22.2874 4.27647 22.1515 0.015345 15.6032 0.399497L4.51004 0.434957C4.51004 0.434957 0.910837 0.836838 0.603516 4.27647Z" fill="#FF4B55"/>
<path d="M0.490234 17.625H22.1741C22.1741 17.625 22.0382 21.8861 15.4958 21.502L4.40267 21.4665C4.40267 21.4665 0.803466 21.0646 0.496144 17.625H0.490234Z" fill="#FF4B55"/>
<path d="M22.1751 4.28125H0.603516V17.632H22.1751V4.28125Z" fill="#FFBC00"/>
<path d="M17.5941 21.8268H5.0708C2.27536 21.8268 0 19.5515 0 16.756V5.17236C0 2.37692 2.27536 0.101562 5.0708 0.101562H17.5941C20.3896 0.101562 22.6649 2.37692 22.6649 5.17236V16.7501C22.6649 19.5455 20.3896 21.8209 17.5941 21.8209V21.8268ZM5.0708 0.692565C2.60041 0.692565 0.591002 2.70197 0.591002 5.17236V16.7501C0.591002 19.2205 2.60041 21.2299 5.0708 21.2299H17.5941C20.0645 21.2299 22.0739 19.2205 22.0739 16.7501V5.17236C22.0739 2.70197 20.0645 0.692565 17.5941 0.692565H5.0708Z" fill="black"/>
<path d="M2.43993 8.69531H7.66439C7.66439 8.69531 8.12537 12.6196 5.05216 13.6893C5.05216 13.6893 1.92576 12.7969 2.43993 8.69531Z" fill="#FF4B55"/>
<path d="M5.03516 8.69531V11.1893H7.39917C7.39917 11.1893 7.8306 10.0014 7.66512 8.69531H5.03516Z" fill="white"/>
<path d="M5.47449 11.2002L5.03125 11.2031L5.04779 13.6971L5.49103 13.6942L5.47449 11.2002Z" fill="#FFBC00"/>
<path d="M4.61707 11.2002L4.17383 11.2031L4.19037 13.6971L4.63361 13.6942L4.61707 11.2002Z" fill="#FFBC00"/>
<path d="M3.7616 11.2002L3.31836 11.2031L3.3349 13.6971L3.77814 13.6942L3.7616 11.2002Z" fill="#FFBC00"/>
</svg>
