<svg width="23" height="23" viewBox="0 0 23 23" fill="none" xmlns="http://www.w3.org/2000/svg">
<path d="M7.77305 0.826687V21.955C7.77305 21.955 2.81455 23.3557 0.296875 18.6986V4.72139C0.296875 4.72139 0.657386 0.147034 7.77305 0.826687Z" fill="#41479A"/>
<path d="M14.8926 0.756374V21.8847C14.8926 21.8847 19.8511 23.2854 22.3688 18.6283V4.65108C22.3688 4.65108 22.0142 0.0767214 14.8926 0.756374Z" fill="#FF4B55"/>
<path d="M14.895 0.820312H7.77344V21.9546H14.895V0.820312Z" fill="white"/>
<path d="M17.5941 22.2799H5.0708C2.27536 22.2799 0 20.0046 0 17.2091V5.62549C0 2.83005 2.27536 0.554688 5.0708 0.554688H17.5941C20.3896 0.554688 22.6649 2.83005 22.6649 5.62549V17.2032C22.6649 19.9987 20.3896 22.274 17.5941 22.274V22.2799ZM5.0708 1.14569C2.60041 1.14569 0.591002 3.1551 0.591002 5.62549V17.2032C0.591002 19.6736 2.60041 21.683 5.0708 21.683H17.5941C20.0645 21.683 22.0739 19.6736 22.0739 17.2032V5.62549C22.0739 3.1551 20.0645 1.14569 17.5941 1.14569H5.0708Z" fill="black"/>
</svg>
