<svg width="23" height="23" viewBox="0 0 23 23" fill="none" xmlns="http://www.w3.org/2000/svg">
<path d="M0.294922 11.3421H22.0734L22.3039 4.81153C22.3039 4.81153 22.5875 -0.389293 14.1598 0.780892H5.07022C5.07022 0.780892 0.383572 1.34825 0.342202 4.91791L0.294922 11.3421Z" fill="#FF4B55"/>
<path d="M0.294973 11.3418H22.0734L22.3039 17.8724C22.3039 17.8724 22.5876 23.0732 14.1599 21.9031H5.07027C5.07027 21.9031 0.383623 21.3298 0.336343 17.7601L0.289062 11.3359L0.294973 11.3418Z" fill="white"/>
<path d="M17.5941 22.2096H5.0708C2.27536 22.2096 0 19.9343 0 17.1388V5.55518C0 2.75973 2.27536 0.484375 5.0708 0.484375H17.5941C20.3896 0.484375 22.6649 2.75973 22.6649 5.55518V17.1329C22.6649 19.9284 20.3896 22.2037 17.5941 22.2037V22.2096ZM5.0708 1.07538C2.60041 1.07538 0.591002 3.08479 0.591002 5.55518V17.1329C0.591002 19.6033 2.60041 21.6127 5.0708 21.6127H17.5941C20.0645 21.6127 22.0739 19.6033 22.0739 17.1329V5.55518C22.0739 3.08479 20.0645 1.07538 17.5941 1.07538H5.0708Z" fill="black"/>
</svg>
