<svg width="23" height="23" viewBox="0 0 23 23" fill="none" xmlns="http://www.w3.org/2000/svg">
<path d="M11.3348 11.5202H0.294922V5.33245C0.294922 5.33245 0.560873 1.52049 4.50877 0.953125H11.3289V11.5202H11.3348Z" fill="#41479A"/>
<path d="M11.3348 0.679688L18.3205 0.738788C18.3205 0.738788 22.0379 1.08157 22.3689 5.45499V17.0327C22.3689 17.0327 22.4634 21.3648 17.5936 21.808H5.07022C5.07022 21.808 0.820914 21.7785 0.294922 17.3282V11.2409H11.3348V0.679688Z" fill="white"/>
<path d="M21.7376 3.39056H11.3359V2.03125H21.3298L21.7376 3.39056Z" fill="#FF4B55"/>
<path d="M22.3759 4.875H11.3359V6.23431H22.3759V4.875Z" fill="#FF4B55"/>
<path d="M22.3759 7.71094H11.3359V9.07024H22.3759V7.71094Z" fill="#FF4B55"/>
<path d="M22.3689 10.5625H0.294922V11.9218H22.3689V10.5625Z" fill="#FF4B55"/>
<path d="M22.3689 13.4062H0.294922V14.7656H22.3689V13.4062Z" fill="#FF4B55"/>
<path d="M22.3689 16.25H0.294922V17.6093H22.3689V16.25Z" fill="#FF4B55"/>
<path d="M20.7504 20.4592H1.8206L0.875 19.0703H21.7551L20.7504 20.4592Z" fill="#FF4B55"/>
<path d="M17.5941 22.1081H5.0708C2.27536 22.1081 0 19.8327 0 17.0373V5.45361C0 2.65817 2.27536 0.382812 5.0708 0.382812H17.5941C20.3896 0.382812 22.6649 2.65817 22.6649 5.45361V17.0314C22.6649 19.8268 20.3896 22.1021 17.5941 22.1021V22.1081ZM5.0708 0.973815C2.60041 0.973815 0.591002 2.98322 0.591002 5.45361V17.0314C0.591002 19.5017 2.60041 21.5111 5.0708 21.5111H17.5941C20.0645 21.5111 22.0739 19.5017 22.0739 17.0314V5.45361C22.0739 2.98322 20.0645 0.973815 17.5941 0.973815H5.0708Z" fill="black"/>
<path d="M6.92615 3.03173H6.92024C6.88478 2.99627 6.85523 2.94899 6.81386 2.91944C6.41788 2.64167 5.99236 2.44073 5.51365 2.34617C4.98175 2.23388 4.45576 2.25161 3.93567 2.39936C3.36831 2.55893 2.87187 2.84852 2.45817 3.27404C1.70169 4.06008 1.41209 4.99977 1.54803 6.06949C1.61895 6.60139 1.81989 7.0801 2.13903 7.51744C2.55864 8.10253 3.10827 8.51033 3.78792 8.729C4.70398 9.0245 5.6023 8.94176 6.45334 8.47487C6.61883 8.38621 6.77249 8.27392 6.93206 8.17345L6.91433 8.1439C6.91433 8.1439 6.86705 8.16754 6.84341 8.17345C6.61883 8.25619 6.40015 8.36258 6.16966 8.41577C5.41909 8.59307 4.70398 8.48078 4.04797 8.0848C3.28557 7.62382 2.81277 6.95008 2.66502 6.06358C2.51727 5.15343 2.75367 4.34376 3.3624 3.6582C3.90021 3.04946 4.58578 2.72441 5.39545 2.69486C5.65549 2.68304 5.92144 2.71259 6.16966 2.76578C6.4297 2.82488 6.67202 2.94308 6.92615 3.03764V3.03173Z" fill="#FFBC00"/>
<path d="M10.2708 3.92047C10.2236 3.9382 10.1763 3.94411 10.1349 3.96775C9.90441 4.10368 9.67392 4.24552 9.43752 4.38145C9.25431 4.48783 9.07701 4.59421 8.8938 4.70059C8.88198 4.69468 8.87016 4.68877 8.85834 4.68286C9.012 4.19233 9.15975 3.70771 9.31341 3.21717C9.30159 3.21717 9.29568 3.21126 9.28386 3.20535C8.99427 3.63088 8.70468 4.0564 8.421 4.48192C8.40918 4.48192 8.40327 4.47601 8.39145 4.4701C8.31462 3.96184 8.2437 3.45357 8.16687 2.94531C8.15505 2.94531 8.14914 2.94531 8.13732 2.94531C8.0664 3.45357 7.98957 3.95593 7.91865 4.46419H7.87728C7.58768 4.03276 7.29809 3.60724 7.00259 3.1758C6.99668 3.1758 6.99077 3.18171 6.98486 3.18762C7.14443 3.68407 7.29809 4.18642 7.45766 4.68286L7.42811 4.70059C6.97895 4.44055 6.52979 4.1746 6.07472 3.91456C6.07472 3.92047 6.0629 3.92638 6.05699 3.93229C6.41159 4.31053 6.7721 4.68877 7.1267 5.07292C7.12079 5.08474 7.11488 5.09656 7.10897 5.10247C6.5948 5.0611 6.07472 5.01973 5.56055 4.97836C5.56055 4.98427 5.56055 4.99609 5.56055 5.002C6.04517 5.19112 6.52388 5.37433 7.0085 5.56345C7.0085 5.57527 7.0085 5.58709 7.0085 5.59891C6.54161 5.78212 6.06881 5.95942 5.60192 6.14264V6.1781C6.11018 6.13673 6.60662 6.10126 7.10306 6.05989C7.10306 6.07762 7.10897 6.08944 7.11488 6.10717C6.76028 6.48542 6.41159 6.85775 6.05699 7.23599C6.05699 7.23599 6.06881 7.24781 6.07472 7.25372C6.52388 6.98777 6.97304 6.72773 7.42811 6.46178C7.43402 6.46769 7.44584 6.47951 7.45175 6.48542C7.29218 6.98186 7.13852 7.48421 6.97895 7.98065C6.97895 7.98065 6.99077 7.98656 6.99668 7.99247C7.28627 7.56104 7.58177 7.12961 7.87137 6.69818C7.88319 6.69818 7.90092 6.69818 7.91274 6.69818C7.98957 7.20644 8.06049 7.7147 8.13732 8.21705C8.14914 8.21705 8.15505 8.21705 8.16687 8.21705C8.2437 7.70879 8.31462 7.19462 8.39145 6.68636C8.40327 6.68636 8.41509 6.68636 8.421 6.68045C8.71059 7.11188 9.00018 7.5374 9.28977 7.96883C9.29568 7.96883 9.3075 7.96883 9.31341 7.96292C9.15975 7.46648 9.00609 6.97595 8.85243 6.47951C8.86425 6.4736 8.87607 6.46769 8.88789 6.46178C9.33705 6.72773 9.78621 6.98777 10.2354 7.25372C10.2354 7.24781 10.2472 7.2419 10.2472 7.23599C9.89259 6.85775 9.53208 6.4736 9.17748 6.09535C9.17748 6.08353 9.1893 6.07172 9.19521 6.05398C9.69165 6.09536 10.1881 6.13082 10.6904 6.17219C10.6904 6.16037 10.6904 6.14854 10.6904 6.13672C10.2236 5.95351 9.75075 5.77621 9.28386 5.593C9.28386 5.58118 9.28386 5.56936 9.28977 5.55754C9.76848 5.37433 10.2472 5.18521 10.7318 5.002C10.7318 4.99609 10.7318 4.98427 10.7259 4.97836C10.2117 5.01973 9.70347 5.0611 9.1893 5.10247C9.1893 5.09065 9.17748 5.07883 9.17157 5.06701C9.53208 4.68286 9.89259 4.29871 10.259 3.91456L10.2708 3.92047Z" fill="#FFBC00"/>
</svg>
