<svg width="23" height="22" viewBox="0 0 690 690" fill="none" xmlns="http://www.w3.org/2000/svg">
<mask id="mask0_526_158" style="mask-type:luminance" maskUnits="userSpaceOnUse" x="0" y="0" width="690" height="690">
<path d="M614.59 0H75.41C33.7622 0 0 33.7622 0 75.41V614.59C0 656.238 33.7622 690 75.41 690H614.59C656.238 690 690 656.238 690 614.59V75.41C690 33.7622 656.238 0 614.59 0Z" fill="white"/>
</mask>
<g mask="url(#mask0_526_158)">
<path d="M784.72 -111.86H-88.71V800.85H784.72V-111.86Z" fill="#009B3A"/>
<path d="M65 344.5L348 525.59L631 344.5L348 163.41L65 344.5Z" fill="#FEDF00"/>
<path d="M348 464.07C413.904 464.07 467.33 410.537 467.33 344.5C467.33 278.463 413.904 224.93 348 224.93C282.096 224.93 228.67 278.463 228.67 344.5C228.67 410.537 282.096 464.07 348 464.07Z" fill="#002776"/>
<mask id="mask1_526_158" style="mask-type:luminance" maskUnits="userSpaceOnUse" x="228" y="224" width="240" height="241">
<path d="M348 464.07C413.904 464.07 467.33 410.537 467.33 344.5C467.33 278.463 413.904 224.93 348 224.93C282.096 224.93 228.67 278.463 228.67 344.5C228.67 410.537 282.096 464.07 348 464.07Z" fill="white"/>
</mask>
<g mask="url(#mask1_526_158)">
<path d="M-10 583.64C-10 423.27 119.75 293.25 279.81 293.25C439.87 293.25 569.62 423.25 569.62 583.64H552.62C552.62 432.7 430.5 310.34 279.86 310.34C129.22 310.34 7.04999 432.72 7.04999 583.64H-10Z" fill="white"/>
</g>
<path d="M389.49 305.85L386.97 307.69L387.93 310.66L385.41 308.83L382.88 310.66L383.85 307.69L381.32 305.85H384.44L385.41 302.88L386.37 305.85H389.49Z" fill="white"/>
<path d="M245.72 321.44L248.73 323.63L247.58 327.17L250.58 324.98L253.59 327.17L252.44 323.63L255.45 321.44H251.73L250.58 317.9L249.44 321.44H245.72Z" fill="white"/>
<path d="M377.31 337.43L379.39 338.94L378.6 341.39L380.68 339.88L382.76 341.39L381.97 338.94L384.04 337.43H381.47L380.68 334.97L379.89 337.43H377.31Z" fill="white"/>
<path d="M270.68 365.47L271.95 366.37L271.46 367.88L272.73 366.97L274 367.88L273.51 366.4L274.78 365.47H273.21L272.73 363.98L272.25 365.47H270.68Z" fill="white"/>
<path d="M261.12 368.17L259.99 371.71H256.27L259.28 373.9L258.13 377.44L261.14 375.25L264.14 377.44L263 373.9L266 371.71H262.29L261.14 368.17" fill="white"/>
<path d="M242.47 382.72L244.98 384.54L244.02 387.49L246.52 385.66L249.03 387.49L248.07 384.54L250.58 382.72H247.48L246.52 379.76L245.57 382.72H242.47Z" fill="white"/>
<path d="M298.64 347.98L301.1 349.77L300.16 352.66L302.61 350.87L305.07 352.66L304.13 349.77L306.59 347.98H303.55L302.61 345.09L301.67 347.98H298.64Z" fill="white"/>
<path d="M282.59 383.69L284.86 385.34L284 388.01L286.25 386.36L288.52 388.01L287.66 385.34L289.92 383.69H287.12L286.25 381.03L285.39 383.69H282.59Z" fill="white"/>
<path d="M279.23 396.21L281.3 397.72L280.51 400.17L282.59 398.65L284.67 400.17L283.88 397.72L285.96 396.21H283.39L282.59 393.76L281.81 396.21H279.23Z" fill="white"/>
<path d="M295.34 405.73L298.35 407.92L297.2 411.46L300.21 409.27L303.21 411.46L302.06 407.92L305.07 405.73H301.35L300.21 402.19L299.06 405.73H295.34Z" fill="white"/>
<path d="M343.91 362.8L346.44 364.64L345.47 367.62L348 365.78L350.53 367.62L349.56 364.64L352.09 362.8H348.95L348 359.83L347.03 362.8H343.91Z" fill="white"/>
<path d="M332.57 373.57L334.65 375.09L333.86 377.54L335.93 376.02L338.02 377.54L337.22 375.09L339.31 373.57H336.73L335.94 371.12L335.14 373.57H332.57Z" fill="white"/>
<path d="M339.87 381.82L341.13 382.74L340.65 384.23L341.91 383.31L343.18 384.23L342.7 382.74L343.96 381.82H342.39L341.91 380.33L341.43 381.82H339.87Z" fill="white"/>
<path d="M357.71 373.25L360.23 375.09L359.27 378.07L361.79 376.23L364.32 378.07L363.36 375.09L365.88 373.25H362.75L361.79 370.28L360.84 373.25H357.71Z" fill="white"/>
<path d="M343.14 397.14L346.14 399.33L345 402.87L348 400.68L351 402.87L349.86 399.33L352.86 397.14H349.15L348 393.6L346.87 397.14H343.14Z" fill="white"/>
<path d="M346.36 437.53L347.33 438.23L346.96 439.37L347.92 438.67L348.89 439.37L348.52 438.23L349.49 437.53H348.29L347.92 436.4L347.56 437.53H346.36Z" fill="white"/>
<path d="M370.91 410.52L372.99 412.04L372.19 414.49L374.27 412.97L376.35 414.49L375.56 412.04L377.64 410.52H375.07L374.27 408.07L373.49 410.52H370.91Z" fill="white"/>
<path d="M379.58 423.65L382.11 425.48L381.14 428.46L383.67 426.62L386.2 428.46L385.23 425.48L387.75 423.65H384.63L383.67 420.67L382.7 423.65H379.58Z" fill="white"/>
<path d="M395.28 414.75L397.37 413.24H394.79L394 410.79L393.21 413.24H390.63L392.71 414.75L391.92 417.2L394 415.69L396.08 417.2L395.28 414.75Z" fill="white"/>
<path d="M403.9 409.27L405.98 410.78L405.19 413.23L407.27 411.72L409.35 413.23L408.55 410.78L410.64 409.27H408.06L407.27 406.82L406.47 409.27H403.9Z" fill="white"/>
<path d="M403.49 420.58L406.01 422.42L405.05 425.39L407.57 423.55L410.1 425.39L409.13 422.42L411.66 420.58H408.54L407.57 417.6L406.61 420.58H403.49Z" fill="white"/>
<path d="M404.49 433.07L406.57 434.58L405.78 437.03L407.86 435.52L409.94 437.03L409.15 434.58L411.23 433.07H408.64L407.86 430.61L407.07 433.07H404.49Z" fill="white"/>
<path d="M416.37 411.41L418.45 412.92L417.66 415.38L419.74 413.86L421.82 415.38L421.02 412.92L423.1 411.41H420.53L419.74 408.96L418.94 411.41H416.37Z" fill="white"/>
<path d="M425.2 405.22L427.73 407.05L426.76 410.02L429.29 408.19L431.81 410.02L430.85 407.05L433.38 405.22H430.25L429.29 402.24L428.34 405.22L425.27 405.2" fill="white"/>
<path d="M432.37 395.89L434.9 397.72L433.93 400.7L436.46 398.86L438.98 400.7L438.02 397.72L440.54 395.89H437.42L436.46 392.91L435.49 395.89H432.37Z" fill="white"/>
<path d="M426.73 384.8L429.74 386.99L428.59 390.53L431.59 388.34L434.6 390.53L433.45 386.99L436.46 384.8H432.74L431.59 381.26L430.45 384.8H426.73Z" fill="white"/>
<path d="M444.94 386.61L447.02 388.12L446.23 390.57L448.3 389.06L450.38 390.57L449.59 388.12L451.67 386.61H449.1L448.3 384.15L447.52 386.61H444.94Z" fill="white"/>
</g>
</svg>
