<svg width="23" height="23" viewBox="0 0 23 23" fill="none" xmlns="http://www.w3.org/2000/svg">
<path d="M0.603516 5.1046H22.2874C22.2874 5.1046 22.1515 0.84347 15.6032 1.22762L4.51004 1.26308C4.51004 1.26308 0.910837 1.66496 0.603516 5.1046Z" fill="#FF4B55"/>
<path d="M0.490234 18.4531H22.1741C22.1741 18.4531 22.0382 22.7143 15.4958 22.3301L4.40267 22.2946C4.40267 22.2946 0.803466 21.8928 0.496144 18.4531H0.490234Z" fill="#FF4B55"/>
<path d="M22.1751 5.10938H0.603516V8.38944H22.1751V5.10938Z" fill="white"/>
<path d="M22.1204 8.38281H0.548828V15.1793H22.1204V8.38281Z" fill="#41479A"/>
<path d="M22.1751 15.1797H0.603516V18.4598H22.1751V15.1797Z" fill="white"/>
<path d="M17.5941 22.6549H5.0708C2.27536 22.6549 0 20.3796 0 17.5841V6.00049C0 3.20505 2.27536 0.929688 5.0708 0.929688H17.5941C20.3896 0.929688 22.6649 3.20505 22.6649 6.00049V17.5782C22.6649 20.3737 20.3896 22.649 17.5941 22.649V22.6549ZM5.0708 1.52069C2.60041 1.52069 0.591002 3.5301 0.591002 6.00049V17.5782C0.591002 20.0486 2.60041 22.058 5.0708 22.058H17.5941C20.0645 22.058 22.0739 20.0486 22.0739 17.5782V6.00049C22.0739 3.5301 20.0645 1.52069 17.5941 1.52069H5.0708Z" fill="black"/>
</svg>
