<svg width="23" height="22" viewBox="0 0 23 22" fill="none" xmlns="http://www.w3.org/2000/svg">
  <path d="M17.5891 0.299063H5.06906C2.42906 0.299063 0.289062 2.42906 0.289062 5.06906V16.6491C0.289062 19.2891 2.42906 21.4291 5.06906 21.4291H17.5891C20.2291 21.4291 22.3691 19.2891 22.3691 16.6491V5.06906C22.3691 2.42906 20.2291 0.289062 17.5891 0.289062V0.299063Z" fill="#FF4B55"/>
  <path d="M17.59 21.73H5.07C2.27 21.73 0 19.45 0 16.66V5.07C0 2.28 2.28 0 5.07 0H17.59C20.39 0 22.66 2.28 22.66 5.07V16.65C22.66 19.45 20.38 21.72 17.59 21.72V21.73ZM5.07 0.59C2.6 0.59 0.59 2.6 0.59 5.07V16.65C0.59 19.12 2.6 21.13 5.07 21.13H17.59C20.06 21.13 22.07 19.12 22.07 16.65V5.07C22.07 2.6 20.06 0.59 17.59 0.59H5.07Z" fill="black"/>
  <path d="M2.11937 5.20719V5.02719C2.17937 4.86719 2.27938 4.75719 2.46938 4.73719C2.62938 4.73719 2.77938 4.71719 2.93938 4.69719C3.22938 4.67719 3.50938 4.63719 3.79938 4.61719C4.02938 4.59719 4.26938 4.57719 4.49938 4.55719C4.53938 4.55719 4.57937 4.53719 4.59937 4.47719C4.77937 4.04719 4.96937 3.61719 5.14937 3.16719C5.22937 2.98719 5.30937 2.77719 5.39937 2.59719C5.45937 2.45719 5.57937 2.38719 5.72937 2.36719C5.86937 2.36719 5.99938 2.42719 6.07938 2.54719C6.09938 2.58719 6.11937 2.62719 6.13937 2.66719C6.38937 3.26719 6.64937 3.85719 6.89937 4.45719C6.91937 4.51719 6.95938 4.55719 7.03938 4.55719H7.05937C7.23937 4.55719 7.42937 4.59719 7.60938 4.59719C7.85938 4.61719 8.07938 4.63719 8.32938 4.65719C8.55938 4.67719 8.77938 4.69719 9.00938 4.71719C9.06938 4.71719 9.12938 4.71719 9.16938 4.75719C9.41938 4.87719 9.47938 5.20719 9.24938 5.41719C8.77938 5.82719 8.32937 6.23719 7.84937 6.64719C7.78937 6.68719 7.72937 6.74719 7.68937 6.78719V6.80719C7.78937 7.23719 7.89937 7.68719 7.97937 8.11719C8.03937 8.36719 8.09938 8.60719 8.13938 8.85719C8.17938 9.06719 8.05937 9.24719 7.84937 9.30719H7.70938C7.70938 9.30719 7.52937 9.22719 7.43937 9.18719C6.90937 8.85719 6.34938 8.52719 5.81938 8.19719C5.77938 8.17719 5.73938 8.17719 5.69938 8.19719C5.16938 8.52719 4.62937 8.83719 4.09937 9.16719C3.99937 9.22719 3.91938 9.28719 3.80938 9.30719H3.70938C3.45938 9.24719 3.35938 9.05719 3.39938 8.81719C3.51938 8.26719 3.64938 7.72719 3.76938 7.17719C3.78938 7.05719 3.82938 6.90719 3.84938 6.78719C3.82938 6.78719 3.80938 6.74719 3.78938 6.74719C3.29938 6.31719 2.79938 5.88719 2.32938 5.47719C2.24938 5.39719 2.16938 5.31719 2.14938 5.20719H2.10938H2.11937Z" fill="#FFBC00"/>
  <path d="M12 3.46719V3.40719C12.02 3.33719 12.06 3.29719 12.14 3.28719C12.2 3.28719 12.26 3.28719 12.32 3.26719C12.43 3.26719 12.54 3.24719 12.66 3.23719C12.75 3.23719 12.84 3.21719 12.93 3.21719C12.95 3.21719 12.96 3.21719 12.97 3.18719C13.04 3.01719 13.11 2.84719 13.19 2.67719C13.22 2.60719 13.25 2.52719 13.29 2.45719C13.31 2.39719 13.36 2.37719 13.42 2.36719C13.48 2.36719 13.52 2.38719 13.56 2.43719C13.56 2.45719 13.58 2.46719 13.58 2.48719C13.68 2.71719 13.78 2.94719 13.88 3.18719C13.88 3.20719 13.9 3.22719 13.94 3.22719C14.01 3.22719 14.08 3.24719 14.16 3.24719C14.26 3.24719 14.34 3.26719 14.44 3.26719C14.53 3.26719 14.62 3.28719 14.7 3.28719C14.72 3.28719 14.75 3.28719 14.76 3.30719C14.86 3.35719 14.88 3.48719 14.79 3.56719C14.61 3.72719 14.43 3.88719 14.25 4.04719C14.23 4.06719 14.2 4.08719 14.19 4.10719C14.23 4.28719 14.27 4.45719 14.3 4.62719C14.32 4.72719 14.35 4.81719 14.36 4.91719C14.38 4.99719 14.33 5.06719 14.25 5.09719H14.19C14.19 5.09719 14.12 5.06719 14.09 5.04719C13.88 4.91719 13.67 4.78719 13.46 4.66719C13.44 4.66719 13.43 4.66719 13.41 4.66719C13.2 4.79719 12.99 4.91719 12.79 5.04719C12.75 5.06719 12.72 5.09719 12.68 5.10719H12.64C12.54 5.08719 12.5 5.00719 12.52 4.91719C12.57 4.69719 12.62 4.49719 12.66 4.27719C12.66 4.22719 12.68 4.17719 12.69 4.12719L12.67 4.10719C12.48 3.93719 12.29 3.76719 12.1 3.60719C12.07 3.57719 12.04 3.54719 12.03 3.50719H12.01L12 3.46719Z" fill="#FFBC00"/>
  <path d="M12 7.92812V7.86812C12.02 7.79812 12.06 7.75813 12.14 7.74813C12.2 7.74813 12.26 7.74813 12.32 7.72813C12.43 7.72813 12.54 7.70812 12.66 7.69812C12.75 7.69812 12.84 7.67812 12.93 7.67812C12.95 7.67812 12.96 7.67813 12.97 7.64813C13.04 7.47813 13.11 7.30812 13.19 7.13812C13.22 7.06812 13.25 6.98813 13.29 6.91813C13.31 6.85813 13.36 6.83812 13.42 6.82812C13.48 6.82812 13.52 6.84813 13.56 6.89813C13.56 6.91813 13.58 6.92812 13.58 6.94812C13.68 7.17812 13.78 7.40813 13.88 7.64813C13.88 7.66813 13.9 7.68813 13.94 7.68813C14.01 7.68813 14.08 7.70813 14.16 7.70813C14.26 7.70813 14.34 7.72813 14.44 7.72813C14.53 7.72813 14.62 7.74813 14.7 7.74813C14.72 7.74813 14.75 7.74813 14.76 7.76813C14.86 7.81813 14.88 7.94812 14.79 8.02812C14.61 8.18812 14.43 8.34813 14.25 8.50813C14.23 8.52813 14.2 8.54812 14.19 8.56812C14.23 8.74812 14.27 8.91813 14.3 9.08813C14.32 9.18813 14.35 9.27813 14.36 9.37813C14.38 9.45813 14.33 9.52813 14.25 9.55813H14.19C14.19 9.55813 14.12 9.52813 14.09 9.50813C13.88 9.37813 13.67 9.24813 13.46 9.12813C13.44 9.12813 13.43 9.12813 13.41 9.12813C13.2 9.25813 12.99 9.37813 12.79 9.50813C12.75 9.52813 12.72 9.55812 12.68 9.56812H12.64C12.54 9.54812 12.5 9.46813 12.52 9.37813C12.57 9.15813 12.62 8.95812 12.66 8.73812C12.66 8.68812 12.68 8.63813 12.69 8.58813L12.67 8.56812C12.48 8.39812 12.29 8.22812 12.1 8.06812C12.07 8.03812 12.04 8.00812 12.03 7.96812H12.01L12 7.92812Z" fill="#FFBC00"/>
  <path d="M9.40039 12.0922V12.0322C9.42039 11.9622 9.46039 11.9222 9.54039 11.9122C9.60039 11.9122 9.66039 11.9122 9.72039 11.8922C9.83039 11.8922 9.94039 11.8722 10.0604 11.8622C10.1504 11.8622 10.2404 11.8422 10.3304 11.8422C10.3504 11.8422 10.3604 11.8422 10.3704 11.8122C10.4404 11.6422 10.5104 11.4722 10.5904 11.3022C10.6204 11.2322 10.6504 11.1522 10.6904 11.0822C10.7104 11.0222 10.7604 11.0022 10.8204 10.9922C10.8804 10.9922 10.9204 11.0122 10.9604 11.0622C10.9604 11.0822 10.9804 11.0922 10.9804 11.1122C11.0804 11.3422 11.1804 11.5722 11.2804 11.8122C11.2804 11.8322 11.3004 11.8522 11.3404 11.8522C11.4104 11.8522 11.4804 11.8722 11.5604 11.8722C11.6604 11.8722 11.7404 11.8922 11.8404 11.8922C11.9304 11.8922 12.0204 11.9122 12.1004 11.9122C12.1204 11.9122 12.1504 11.9122 12.1604 11.9322C12.2604 11.9822 12.2804 12.1122 12.1904 12.1922C12.0104 12.3522 11.8304 12.5122 11.6504 12.6722C11.6304 12.6922 11.6004 12.7122 11.5904 12.7322C11.6304 12.9122 11.6704 13.0822 11.7004 13.2522C11.7204 13.3522 11.7504 13.4422 11.7604 13.5422C11.7804 13.6222 11.7304 13.6922 11.6504 13.7222H11.5904C11.5904 13.7222 11.5204 13.6922 11.4904 13.6722C11.2804 13.5422 11.0704 13.4122 10.8604 13.2922C10.8404 13.2922 10.8304 13.2922 10.8104 13.2922C10.6004 13.4222 10.3904 13.5422 10.1904 13.6722C10.1504 13.6922 10.1204 13.7222 10.0804 13.7322H10.0404C9.94039 13.7122 9.90039 13.6322 9.92039 13.5422C9.97039 13.3222 10.0204 13.1222 10.0604 12.9022C10.0604 12.8522 10.0804 12.8022 10.0904 12.7522L10.0704 12.7322C9.88039 12.5622 9.69039 12.3922 9.50039 12.2322C9.47039 12.2022 9.44039 12.1722 9.43039 12.1322H9.41039L9.40039 12.0922Z" fill="#FFBC00"/>
  <path d="M4.33984 12.4594V12.3994C4.35984 12.3294 4.39984 12.2894 4.47984 12.2794C4.53984 12.2794 4.59984 12.2794 4.65984 12.2594C4.76984 12.2594 4.87984 12.2394 4.99984 12.2294C5.08984 12.2294 5.17984 12.2094 5.26984 12.2094C5.28984 12.2094 5.29984 12.2094 5.30984 12.1794C5.37984 12.0094 5.44984 11.8394 5.52984 11.6694C5.55984 11.5994 5.58984 11.5194 5.62984 11.4494C5.64984 11.3894 5.69984 11.3694 5.75984 11.3594C5.81984 11.3594 5.85984 11.3794 5.89984 11.4294C5.89984 11.4494 5.91984 11.4594 5.91984 11.4794C6.01984 11.7094 6.11984 11.9394 6.21984 12.1794C6.21984 12.1994 6.23984 12.2194 6.27984 12.2194C6.34984 12.2194 6.41984 12.2394 6.49984 12.2394C6.59984 12.2394 6.67984 12.2594 6.77984 12.2594C6.86984 12.2594 6.95984 12.2794 7.03984 12.2794C7.05984 12.2794 7.08984 12.2794 7.09984 12.2994C7.19984 12.3494 7.21984 12.4794 7.12984 12.5594C6.94984 12.7194 6.76984 12.8794 6.58984 13.0394C6.56984 13.0594 6.53984 13.0794 6.52984 13.0994C6.56984 13.2794 6.60984 13.4494 6.63984 13.6194C6.65984 13.7194 6.68984 13.8094 6.69984 13.9094C6.71984 13.9894 6.66984 14.0594 6.58984 14.0894H6.52984C6.52984 14.0894 6.45984 14.0594 6.42984 14.0394C6.21984 13.9094 6.00984 13.7794 5.79984 13.6594C5.77984 13.6594 5.76984 13.6594 5.74984 13.6594C5.53984 13.7894 5.32984 13.9094 5.12984 14.0394C5.08984 14.0594 5.05984 14.0894 5.01984 14.0994H4.97984C4.87984 14.0794 4.83984 13.9994 4.85984 13.9094C4.90984 13.6894 4.95984 13.4894 4.99984 13.2694C4.99984 13.2194 5.01984 13.1694 5.02984 13.1194L5.00984 13.0994C4.81984 12.9294 4.62984 12.7594 4.43984 12.5994C4.40984 12.5694 4.37984 12.5394 4.36984 12.4994H4.34984L4.33984 12.4594Z" fill="#FFBC00"/>
</svg>